<?xml version="1.0" standalone="no"?>
<!DOCTYPE svg PUBLIC "-//W3C//DTD SVG 20010904//EN"
 "http://www.w3.org/TR/2001/REC-SVG-20010904/DTD/svg10.dtd">
<svg version="1.0" xmlns="http://www.w3.org/2000/svg"
 width="280.000000pt" height="280.000000pt" viewBox="0 0 280.000000 280.000000"
 preserveAspectRatio="xMidYMid meet">
<metadata>
Created by potrace 1.14, written by Peter Selinger 2001-2017
</metadata>
<g transform="translate(0.000000,280.000000) scale(0.100000,-0.100000)"
fill="#000000" stroke="none">
<path d="M1348 2695 c-1 -1 -34 -5 -73 -8 -354 -28 -695 -222 -916 -519 -34
-46 -67 -94 -73 -108 -6 -14 -14 -27 -17 -30 -18 -13 -126 -280 -113 -280 2 0
0 -8 -5 -17 -5 -10 -12 -35 -15 -57 -4 -21 -8 -42 -11 -46 -7 -12 -19 -159
-19 -240 0 -167 22 -282 89 -468 14 -41 64 -140 103 -207 99 -171 316 -371
508 -469 86 -44 233 -100 291 -111 47 -8 77 -15 103 -21 46 -11 302 -14 359
-5 31 6 72 12 91 15 68 10 216 58 300 97 71 34 202 110 220 129 3 3 22 17 42
33 48 35 154 141 198 197 42 53 110 148 110 154 0 2 16 32 35 65 19 34 35 65
36 69 2 9 13 39 32 85 9 20 16 40 17 42 0 3 0 6 1 8 14 48 40 161 46 207 9 65
9 330 0 380 -13 71 -18 96 -28 135 -16 64 -50 159 -61 173 -6 6 -8 12 -4 12 7
0 -89 185 -104 200 -3 3 -24 31 -48 63 -127 171 -272 291 -467 387 -143 70
-260 105 -420 126 -50 6 -202 13 -207 9z m702 -507 c25 -10 56 -31 68 -46 49
-56 51 -72 52 -407 l0 -315 -32 0 c-18 0 -48 -4 -66 -9 -27 -8 -32 -7 -33 7 0
9 -1 132 -2 271 l-2 255 -638 0 c-352 1 -643 -1 -648 -4 -5 -4 -8 -250 -6
-567 2 -445 5 -565 15 -575 10 -10 90 -14 352 -16 231 -2 340 -6 340 -13 0 -6
-7 -35 -16 -65 l-15 -54 -330 0 c-308 0 -332 1 -368 20 -48 24 -87 70 -101
118 -8 25 -10 235 -8 662 3 602 4 626 23 655 29 45 59 70 101 87 33 13 126 15
654 15 585 1 617 0 660 -19z m-209 -508 c6 -35 4 -112 -3 -116 -13 -8 -888 -7
-896 1 -10 9 -10 98 -1 111 9 11 898 15 900 4z m-16 -255 c17 -4 20 -12 19
-62 l0 -58 -452 -3 c-358 -2 -452 0 -453 10 -5 57 -3 104 4 109 9 6 849 10
882 4z m403 -211 c79 -82 81 -103 15 -167 -35 -34 -51 -43 -62 -37 -9 5 -54
47 -100 93 l-84 84 44 48 c74 80 88 79 187 -21z m-479 -74 c-19 -16 -38 -29
-43 -30 -7 0 -33 -19 -84 -61 -14 -12 -660 -17 -679 -6 -8 5 -10 79 -4 120 0
4 191 7 423 7 l421 -1 -34 -29z m285 -119 l99 -99 -168 -166 c-93 -91 -171
-166 -174 -167 -18 -2 -179 -47 -201 -56 -14 -6 -28 -7 -50 -4 -14 2 -12 42 5
90 8 23 14 42 13 44 0 1 8 31 17 67 18 63 22 69 179 228 88 89 165 162 171
162 5 0 55 -45 109 -99z"/>
<path d="M1648 759 c-7 -4 -10 -11 -6 -14 3 -3 -2 -27 -12 -53 -15 -39 -16
-50 -5 -65 12 -16 16 -16 78 3 65 20 66 20 57 50 -10 34 -10 35 -10 53 0 16
-83 37 -102 26z"/>
</g>
</svg>
